<svg width="250" height="24" viewBox="0 0 329 24" fill="none" xmlns="http://www.w3.org/2000/svg">
<rect width="4.98342" height="23.3164" fill="#8B0000"/>
<rect x="4.9832" y="23.3164" width="4.83242" height="9.96683" transform="rotate(-90 4.9832 23.3164)" fill="#8B0000"/>
<path d="M9.9664 23.3164L14.9498 13.6515V23.3164H9.9664Z" fill="#E02E21"/>
<path d="M75.6719 18.3919V14.6006C84.8524 24.9585 89.9411 24.9275 98.8746 14.6006V18.3919H75.6719Z" fill="#8B0000"/>
<path d="M75.6719 8.24316H81.2968V23.3164L75.6719 18.4883V8.24316Z" fill="#E02E21"/>
<path d="M93.2503 4.12158H98.8752V18.4883L93.2503 23.3164V4.12158Z" fill="#8B0000"/>
<path fill-rule="evenodd" clip-rule="evenodd" d="M75.6719 7.65437L78.4843 4.12158L81.2968 7.65437H75.6719Z" fill="#E02E21"/>
<path fill-rule="evenodd" clip-rule="evenodd" d="M93.2503 3.53279L96.0627 0L98.8752 3.53279H93.2503Z" fill="#8B0000"/>
<path d="M204 18.6419V14.8506C213.181 25.2085 218.269 25.1775 227.203 14.8506V18.6419H204Z" fill="#8B0000"/>
<path d="M204 8.49316H209.625V23.5664L204 18.7383V8.49316Z" fill="#E02E21"/>
<path d="M221.578 4.37158H227.203V18.7383L221.578 23.5664V4.37158Z" fill="#8B0000"/>
<path fill-rule="evenodd" clip-rule="evenodd" d="M204 7.90437L206.812 4.37158L209.625 7.90437H204Z" fill="#E02E21"/>
<path fill-rule="evenodd" clip-rule="evenodd" d="M221.578 3.78279L224.391 0.25L227.203 3.78279H221.578Z" fill="#8B0000"/>
<path d="M21.5684 18.3919V14.6006C30.7489 24.9585 35.8376 24.9275 44.7711 14.6006V18.3919H21.5684Z" fill="#8B0000"/>
<path d="M21.5684 8.24316H27.1933V23.3164L21.5684 18.4883V8.24316Z" fill="#E02E21"/>
<path d="M39.1467 4.12158H44.7716V18.4883L39.1467 23.3164V4.12158Z" fill="#8B0000"/>
<path fill-rule="evenodd" clip-rule="evenodd" d="M21.5684 7.65437L24.3808 4.12158L27.1933 7.65437H21.5684Z" fill="#E02E21"/>
<path fill-rule="evenodd" clip-rule="evenodd" d="M39.1467 3.53279L41.9592 0L44.7716 3.53279H39.1467Z" fill="#8B0000"/>
<ellipse cx="62.3737" cy="11.7032" rx="11.0768" ry="11.2368" fill="#E02E21"/>
<rect x="51.2969" width="6.92301" height="23.3164" fill="#8B0000"/>
<path d="M115.977 0.582886H128.575V4.9149H115.977V0.582886Z" fill="#E02E21"/>
<path d="M103.777 19.5673H113.723V23.8993H103.777V19.5673Z" fill="#E02E21"/>
<path d="M118.269 0.582886H103.778L103.758 14.3922L124.047 14.346L124.067 19.5673H103.778L111.439 23.8993H128.492L128.472 10.1388H108.221L108.22 4.9149H128.576L118.269 0.582886Z" fill="#8B0000"/>
<path d="M316.219 0.25H328.818V4.58201H316.219V0.25Z" fill="#E02E21"/>
<path d="M304.019 19.2344H313.965V23.5664H304.019V19.2344Z" fill="#E02E21"/>
<path d="M318.511 0.25H304.02L304 14.0593L324.289 14.0131L324.309 19.2344H304.02L311.681 23.5664H328.734L328.714 9.8059H308.463L308.462 4.58201H328.818L318.511 0.25Z" fill="#8B0000"/>
<path d="M161.219 0.25H173.818V4.58201H161.219V0.25Z" fill="#E02E21"/>
<path d="M149.019 19.2344H158.965V23.5664H149.019V19.2344Z" fill="#E02E21"/>
<path d="M163.511 0.25H149.02L149 14.0593L169.289 14.0131L169.309 19.2344H149.02L156.681 23.5664H173.734L173.714 9.8059H153.463L153.462 4.58201H173.818L163.511 0.25Z" fill="#8B0000"/>
<rect x="188.12" y="0.25" width="4.33083" height="22.7368" fill="#8B0000"/>
<rect x="180" y="4.58087" width="4.33083" height="20.5714" transform="rotate(-90 180 4.58087)" fill="#8B0000"/>
<path d="M185.194 4.58087L180 0.250045L200.571 0.250045L195.323 4.58087L185.194 4.58087Z" fill="#E02E21"/>
<ellipse cx="243.2" cy="11.5443" rx="9.2" ry="11.0843" fill="#8B0000"/>
<rect x="234" width="5.75" height="23" fill="#E02E21"/>
<path fill-rule="evenodd" clip-rule="evenodd" d="M261 23.25V5.71535L266 8.44802V23.25H261Z" fill="#8B0000"/>
<path d="M261 0.25H266V6.17079L261 3.43812V0.25Z" fill="#8B0000"/>
<path d="M296.717 6.47242C295.561 4.23316 293.701 2.43588 291.423 1.35698C289.145 0.278073 286.576 -0.0226926 284.111 0.500934C281.645 1.02456 279.42 2.34358 277.778 4.25514C276.135 6.16669 275.166 8.56492 275.019 11.081C274.873 13.597 275.557 16.0916 276.966 18.181C278.376 20.2704 280.432 21.839 282.82 22.6454C285.208 23.4518 287.795 23.4515 290.182 22.6445C292.57 21.8375 294.626 20.2684 296.035 18.1787L292.221 15.6072C291.376 16.861 290.142 17.8025 288.709 18.2867C287.277 18.7709 285.725 18.7711 284.292 18.2872C282.859 17.8034 281.625 16.8623 280.78 15.6086C279.934 14.355 279.524 12.8582 279.612 11.3486C279.7 9.83895 280.281 8.40001 281.267 7.25308C282.252 6.10615 283.587 5.31474 285.066 5.00056C286.546 4.68638 288.087 4.86684 289.454 5.51418C290.82 6.16153 291.937 7.2399 292.63 8.58345L296.717 6.47242Z" fill="#E02E21"/>
<path d="M289.848 22.7519C291.603 22.2178 293.205 21.2717 294.519 19.9925C295.834 18.7133 296.824 17.1381 297.406 15.3985C297.988 13.6588 298.145 11.8052 297.865 9.99231C297.585 8.17944 296.875 6.45995 295.794 4.9774C294.714 3.49484 293.295 2.29223 291.655 1.46998C290.015 0.647726 288.202 0.229685 286.368 0.250759C284.534 0.271832 282.731 0.731408 281.11 1.59112C279.49 2.45083 278.099 3.68572 277.053 5.19271L280.832 7.81563C281.459 6.91143 282.294 6.1705 283.266 5.65467C284.239 5.13884 285.32 4.8631 286.421 4.85046C287.521 4.83781 288.609 5.08864 289.593 5.58199C290.577 6.07534 291.428 6.7969 292.077 7.68644C292.725 8.57597 293.151 9.60766 293.319 10.6954C293.487 11.7831 293.393 12.8953 293.044 13.9391C292.694 14.9829 292.101 15.928 291.312 16.6955C290.523 17.463 289.562 18.0307 288.509 18.3511L289.848 22.7519Z" fill="#8B0000"/>
</svg>
