<svg width="39" height="39" viewBox="0 0 39 39" fill="none" xmlns="http://www.w3.org/2000/svg">
<path d="M9.74912 17.875H16.2491M12.9991 14.625V21.125M24.3741 19.5H24.3904M29.2491 16.25H29.2654M16.9787 8.125H22.0196C26.285 8.125 28.4177 8.125 30.0918 8.93333C31.5657 9.64502 32.7902 10.7853 33.6051 12.2047C34.5307 13.8169 34.6826 15.9442 34.9865 20.1988L35.3863 25.7961C35.5824 28.5406 33.4087 30.875 30.6573 30.875C29.2502 30.875 27.9158 30.25 27.015 29.1691L26.4054 28.4375C25.8478 27.7684 25.5689 27.4338 25.2514 27.1634C24.5859 26.5967 23.7802 26.2193 22.9187 26.0708C22.5078 26 22.0723 26 21.2012 26H17.797C16.926 26 16.4905 26 16.0795 26.0708C15.2181 26.2193 14.4123 26.5967 13.7468 27.1634C13.4293 27.4338 13.1505 27.7683 12.5929 28.4375L11.9832 29.1691C11.0824 30.25 9.74807 30.875 8.34099 30.875C5.58951 30.875 3.41587 28.5406 3.6119 25.7961L4.01171 20.1988C4.31561 15.9442 4.46756 13.8169 5.3931 12.2047C6.208 10.7853 7.43259 9.64502 8.90649 8.93333C10.5805 8.125 12.7132 8.125 16.9787 8.125Z" stroke="white" stroke-width="3" stroke-linecap="round" stroke-linejoin="round"/>
</svg>
