<svg width="36" height="37" viewBox="0 0 36 37" fill="none" xmlns="http://www.w3.org/2000/svg">
<path d="M34.3478 31.5917V18.9807C34.3479 18.1033 34.1667 17.2352 33.8152 16.4294C33.4637 15.6236 32.9493 14.8972 32.3036 14.2947L20.2749 3.06635C19.6691 2.50062 18.867 2.18541 18.0333 2.18541C17.1996 2.18541 16.3975 2.50062 15.7917 3.06635L3.76296 14.2947C3.11727 14.8972 2.60292 15.6236 2.25142 16.4294C1.89991 17.2352 1.71866 18.1033 1.71875 18.9807V31.5917C1.71875 32.4464 2.06252 33.2661 2.67443 33.8705C3.28635 34.4749 4.11628 34.8145 4.98166 34.8145H31.0849C31.9503 34.8145 32.7802 34.4749 33.3921 33.8705C34.0041 33.2661 34.3478 32.4464 34.3478 31.5917Z" fill="white" stroke="white" stroke-width="3.26291" stroke-linecap="round" stroke-linejoin="round"/>
</svg>
