<svg width="22" height="23" viewBox="0 0 22 23" fill="none" xmlns="http://www.w3.org/2000/svg">
<path d="M21.8974 7.21096C21.9139 6.11371 21.7173 5.02471 21.3199 4.00034C20.6214 2.29534 19.1296 1.04271 17.3283 0.648088C16.4854 0.463838 15.6261 0.371713 14.7639 0.374463C14.6993 0.367588 14.6347 0.355213 14.5714 0.340088H7.33757C7.16982 0.355213 7.00482 0.379963 6.84532 0.382713C5.74532 0.366213 4.65357 0.562838 3.62782 0.960213C1.92145 1.65734 0.667449 3.14921 0.272824 4.94909C0.0775741 5.79059 -0.0145509 6.65271 -0.00217587 7.51621C-0.0159259 9.94996 -0.0338009 12.381 -0.0159259 14.812C-0.0489259 15.8721 0.0720741 16.9308 0.342949 17.9566C0.927324 20.1277 2.7437 21.7447 4.96845 22.0747C6.17845 22.2658 7.40495 22.3401 8.63007 22.2975C10.5413 22.303 12.4512 22.3085 14.3624 22.281C15.4377 22.314 16.5116 22.1957 17.5524 21.9303C19.7469 21.3611 21.3832 19.5296 21.7036 17.2856C21.8369 16.5788 21.8397 15.846 21.903 15.1241C21.9084 15.0608 21.9236 14.999 21.9332 14.9357V7.70596C21.9249 7.54096 21.9002 7.37596 21.8974 7.21096ZM19.9174 14.8725C19.934 15.67 19.8542 16.4675 19.6796 17.2471C19.3537 18.7926 18.0667 19.9503 16.4951 20.114C15.5683 20.2391 14.6333 20.301 13.6983 20.2968C11.7073 20.3216 9.7177 20.3216 7.7267 20.2968C6.8192 20.3257 5.9117 20.2418 5.02482 20.0493C3.47795 19.7248 2.31882 18.4378 2.1552 16.8662C2.03007 15.9395 1.96957 15.0031 1.97507 14.0681C1.94895 12.0798 1.94895 10.0902 1.97507 8.10059C1.9462 7.19309 2.03007 6.28559 2.22257 5.40009C2.54707 3.85184 3.83545 2.69271 5.40982 2.53046C6.33657 2.40534 7.27157 2.34346 8.20657 2.34759C10.1962 2.32284 12.1872 2.32284 14.1782 2.34759C15.0857 2.31871 15.9932 2.40259 16.8801 2.59509C18.427 2.92096 19.5861 4.20659 19.7483 5.77821C19.8652 6.69809 19.9271 7.62484 19.9326 8.55296C19.9614 9.48521 19.9394 13.6968 19.9174 14.8725Z" fill="#282828"/>
<path d="M10.9276 5.64771C6.64858 5.65183 3.9797 10.3612 6.12333 14.1232C8.26558 17.8852 13.6143 17.8797 15.7511 14.1122C16.2351 13.2583 16.4908 12.289 16.4922 11.3031C16.4895 8.18046 14.0007 5.65046 10.9276 5.64771ZM10.9152 14.9386C8.15558 14.9235 6.4437 11.8792 7.8352 9.45508C9.22808 7.03371 12.6793 7.05021 14.0488 9.48671C14.361 10.0408 14.5218 10.6678 14.5205 11.3045C14.5136 13.3188 12.8993 14.9455 10.9152 14.9386Z" fill="#282828"/>
<path d="M16.8635 4.12821C15.8832 4.12133 15.2617 5.21858 15.7457 6.10271C16.231 6.98683 17.4575 6.99508 17.9539 6.11783C18.0667 5.91846 18.1272 5.69021 18.1285 5.45921C18.1354 4.72908 17.5675 4.13096 16.8635 4.12821Z" fill="#282828"/>
</svg>
