<svg width="137" height="116" viewBox="0 0 137 116" fill="none" xmlns="http://www.w3.org/2000/svg">
<path d="M125.334 13.125V8.75001C125.334 5.52835 122.722 2.91667 119.501 2.91667C116.279 2.91667 113.667 5.52834 113.667 8.75001V13.125M107.239 15.0966L106.364 24.43C106.115 27.0837 105.991 28.4106 106.431 29.4354C106.818 30.3357 107.496 31.0801 108.356 31.5493C109.335 32.0833 110.668 32.0833 113.333 32.0833H125.668C128.333 32.0833 129.666 32.0833 130.645 31.5493C131.505 31.0801 132.183 30.3357 132.57 29.4354C133.01 28.4106 132.886 27.0837 132.637 24.43L131.762 15.0966C131.552 12.8557 131.447 11.7353 130.943 10.8882C130.499 10.1421 129.844 9.54496 129.059 9.1727C128.169 8.75001 127.044 8.75001 124.793 8.75001L114.208 8.75001C111.958 8.75001 110.832 8.75001 109.942 9.17269C109.158 9.54496 108.502 10.1421 108.058 10.8882C107.554 11.7353 107.449 12.8557 107.239 15.0966Z" stroke="#FEB95A" stroke-width="3" stroke-linecap="round" stroke-linejoin="round"/>
<path d="M28.9998 53.1667H48.3332M38.6665 43.5V62.8333M72.4998 58H72.5482M86.9998 48.3333H87.0482M50.5031 24.1667H65.4966C78.1835 24.1667 84.527 24.1667 89.5061 26.5709C93.89 28.6878 97.5324 32.0793 99.9562 36.3012C102.709 41.0964 103.161 47.4237 104.065 60.0784L105.254 76.7268C105.837 84.8899 99.372 91.8333 91.1881 91.8333C87.003 91.8333 83.034 89.9744 80.3548 86.7593L78.5415 84.5833C76.883 82.5931 76.0536 81.5978 75.1093 80.7937C73.1297 79.108 70.7333 77.9856 68.1709 77.544C66.9487 77.3333 65.6533 77.3333 63.0624 77.3333H52.9372C50.3464 77.3333 49.051 77.3333 47.8287 77.544C45.2664 77.9856 42.8699 79.108 40.8904 80.7937C39.9461 81.5979 39.1168 82.593 37.4582 84.5833L35.6449 86.7593C32.9656 89.9744 28.9967 91.8333 24.8116 91.8333C16.6277 91.8333 10.1625 84.8899 10.7455 76.7268L11.9347 60.0784C12.8386 47.4237 13.2906 41.0964 16.0435 36.3012C18.4673 32.0793 22.1097 28.6878 26.4936 26.5709C31.4727 24.1667 37.8162 24.1667 50.5031 24.1667Z" stroke="#FEB95A" stroke-width="5" stroke-linecap="round" stroke-linejoin="round"/>
</svg>
