<svg width="20" height="20" viewBox="0 0 20 20" fill="none" xmlns="http://www.w3.org/2000/svg">
<g clip-path="url(#clip0_2027_2065)">
<path d="M3.33343 18.1812C3.83558 18.3333 4.51382 18.3333 5.66675 18.3333H14.3334C15.4863 18.3333 16.1646 18.3333 16.6667 18.1812M3.33343 18.1812C3.22577 18.1486 3.12619 18.109 3.03177 18.0609C2.56137 17.8212 2.17892 17.4387 1.93923 16.9683C1.66675 16.4335 1.66675 15.7335 1.66675 14.3333V5.66667C1.66675 4.26654 1.66675 3.56647 1.93923 3.0317C2.17892 2.56129 2.56137 2.17884 3.03177 1.93916C3.56655 1.66667 4.26662 1.66667 5.66675 1.66667H14.3334C15.7335 1.66667 16.4336 1.66667 16.9684 1.93916C17.4388 2.17884 17.8212 2.56129 18.0609 3.0317C18.3334 3.56647 18.3334 4.26654 18.3334 5.66667V14.3333C18.3334 15.7335 18.3334 16.4335 18.0609 16.9683C17.8212 17.4387 17.4388 17.8212 16.9684 18.0609C16.874 18.109 16.7744 18.1486 16.6667 18.1812M3.33343 18.1812C3.33371 17.5068 3.33775 17.1499 3.39746 16.8497C3.66049 15.5274 4.69415 14.4937 6.01645 14.2307C6.33844 14.1667 6.72566 14.1667 7.50008 14.1667H12.5001C13.2745 14.1667 13.6617 14.1667 13.9837 14.2307C15.306 14.4937 16.3397 15.5274 16.6027 16.8497C16.6624 17.1499 16.6665 17.5068 16.6667 18.1812M13.3334 7.91667C13.3334 9.75762 11.841 11.25 10.0001 11.25C8.15913 11.25 6.66675 9.75762 6.66675 7.91667C6.66675 6.07572 8.15913 4.58334 10.0001 4.58334C11.841 4.58334 13.3334 6.07572 13.3334 7.91667Z" stroke="white" stroke-width="2" stroke-linecap="round" stroke-linejoin="round"/>
</g>
<defs>
<clipPath id="clip0_2027_2065">
<rect width="20" height="20" fill="white"/>
</clipPath>
</defs>
</svg>
