<svg width="22" height="15" viewBox="0 0 22 15" fill="none" xmlns="http://www.w3.org/2000/svg">
<path d="M20.663 2.45417C20.549 2.02514 20.3243 1.63358 20.0114 1.31867C19.6985 1.00376 19.3083 0.776559 18.8801 0.659798C17.3034 0.23584 11.0013 0.23584 11.0013 0.23584C11.0013 0.23584 4.69922 0.23584 3.12255 0.659798C2.69426 0.776559 2.30414 1.00376 1.99125 1.31867C1.67835 1.63358 1.45365 2.02514 1.33964 2.45417C0.917969 4.03771 0.917969 7.34001 0.917969 7.34001C0.917969 7.34001 0.917969 10.6423 1.33964 12.2258C1.45365 12.6549 1.67835 13.0464 1.99125 13.3613C2.30414 13.6763 2.69426 13.9035 3.12255 14.0202C4.69922 14.4442 11.0013 14.4442 11.0013 14.4442C11.0013 14.4442 17.3034 14.4442 18.8801 14.0202C19.3083 13.9035 19.6985 13.6763 20.0114 13.3613C20.3243 13.0464 20.549 12.6549 20.663 12.2258C21.0846 10.6423 21.0846 7.34001 21.0846 7.34001C21.0846 7.34001 21.0846 4.03771 20.663 2.45417Z" fill="#282828"/>
<path d="M8.9375 10.3386L14.2083 7.33995L8.9375 4.34131V10.3386Z" fill="white"/>
</svg>
